<svg width="32" height="32" viewBox="0 0 32 32" fill="none" xmlns="http://www.w3.org/2000/svg">
  <rect width="32" height="32" rx="8" fill="url(#gradient)"/>
  <path d="M16 8C13.8 8 12 9.8 12 12V16C12 18.2 13.8 20 16 20C18.2 20 20 18.2 20 16V12C20 9.8 18.2 8 16 8Z" fill="white"/>
  <path d="M10 15C10 15 10 19.5 10 20C10 22.76 12.69 25 16 25C19.31 25 22 22.76 22 20C22 19.5 22 15 22 15" stroke="white" stroke-width="2" stroke-linecap="round"/>
  <line x1="16" y1="25" x2="16" y2="28" stroke="white" stroke-width="2" stroke-linecap="round"/>
  <line x1="13" y1="28" x2="19" y2="28" stroke="white" stroke-width="2" stroke-linecap="round"/>
  <defs>
    <linearGradient id="gradient" x1="0" y1="0" x2="32" y2="32" gradientUnits="userSpaceOnUse">
      <stop stop-color="#8B5CF6"/>
      <stop offset="1" stop-color="#6366F1"/>
    </linearGradient>
  </defs>
</svg>
